# xmcd
#
# Track frame offsets:
#	150
#	13798
#	27950
#	43294
#	57884
#	76074
#	93128
#	106123
#	122093
#	139843
#	150594
#	161155
#	172375
#	189112
#	206548
#	220592
#
# Disc length: 3141 seconds
# Revision: 1
# Processed by: cddbd v1.5.2PL0 Copyright (c) Steve Scherf et al.
# Submitted via: dBpowerAMP V12.0
#
DISCID=cf0c4310
DTITLE=Johnny Napp - Cowboy Up And Party Down
DYEAR=2005
DGENRE=Country
TTITLE0=Cowboy Up And Party Down
TTITLE1=How Hot Was It
TTITLE2=Something I Hadn't Thought Of In Years
TTITLE3=It Wasn't Even My Goodbye
TTITLE4=The Woman I Can't Do Without
TTITLE5=Life Is For The Living
TTITLE6=There's Love
TTITLE7=Something Like A Broken Heart
TTITLE8=Born In The Sticks - Raised On The Stones
TTITLE9=Fight Like A Girl
TTITLE10=She's A Lady
TTITLE11=Advil And Orange Juice
TTITLE12=That's Love
TTITLE13=Hope Lives
TTITLE14=Get In The Car
TTITLE15=How Cool Is That
EXTD=
EXTT0=
EXTT1=
EXTT2=
EXTT3=
EXTT4=
EXTT5=
EXTT6=
EXTT7=
EXTT8=
EXTT9=
EXTT10=
EXTT11=
EXTT12=
EXTT13=
EXTT14=
EXTT15=
PLAYORDER=
